# xmcd CD database file
#
# Track frame offsets:
#	150
#	15779
#	33592
#	54050
#	71388
#	86606
#	102173
#	121169
#	140677
#	154092
#	171261
#	191380
#
# Disc length: 2787 seconds
#
# Revision: 0
# Processed by: cddbd v1.4PL0 Copyright (c) Steve Scherf et al.
# Submitted via: CDex 1.40Release
#
DISCID=8c0ae10c
DTITLE=Chili Blus Band - Satisfaction Guaranteed
DYEAR=2001
DGENRE=Blues
TTITLE0=Am I Wrong
TTITLE1=Selfish Man Blues
TTITLE2=Heartache Pain
TTITLE3=Someone's Got My Money
TTITLE4=Temptation
TTITLE5=Chicago's Boogie
TTITLE6=Tangled In A Web
TTITLE7=T-Bone's Got A Harley
TTITLE8=Satisfaction Guaranteed
TTITLE9=Price I Pay
TTITLE10=Chili Blues
TTITLE11=My Baby's Whiskey Smile
EXTD=YEAR: 2001 ID3G: 0
EXTT0=
EXTT1=
EXTT2=
EXTT3=
EXTT4=
EXTT5=
EXTT6=
EXTT7=
EXTT8=
EXTT9=
EXTT10=
EXTT11=
PLAYORDER=
